<svg width="70" height="45" viewBox="0 0 70 45" fill="none" xmlns="http://www.w3.org/2000/svg">
<path fill-rule="evenodd" clip-rule="evenodd" d="M23.989 26.5195C19.0968 27.8355 15.1694 28.7275 9.86877 29.7267C8.079 30.0641 6.59481 30.3667 6.57067 30.3992C6.54641 30.4316 6.37775 31.2476 6.19563 32.2122C6.0135 33.177 5.66272 34.4616 5.41593 35.0667L4.96729 36.1671L3.16085 36.3687C1.11042 36.5975 0.652047 36.8392 0.244201 37.907C-0.197642 39.0637 -0.0389839 40.1398 0.712711 41.0835C0.977097 41.4156 1.24375 41.5367 1.82532 41.5885C2.24596 41.6261 7.80981 41.1244 14.1895 40.4738L25.7889 39.2909L26.0555 39.7801C27.4324 42.3069 29.2535 43.8225 31.7188 44.4935C32.6568 44.7489 35.589 44.748 36.5293 44.4923C38.9894 43.8228 40.8121 42.3051 42.188 39.7801L42.4547 39.2909L54.0541 40.4738C60.4338 41.1244 65.9976 41.6261 66.4182 41.5885C66.9979 41.5369 67.2683 41.4147 67.5354 41.0835C68.5157 39.8685 68.4448 37.973 67.3823 36.9946C67.0137 36.655 66.6536 36.5513 65.3603 36.4115C64.495 36.318 63.7237 36.2132 63.6464 36.1786C63.3579 36.0496 62.6275 33.8699 62.311 32.1934C62.1309 31.239 61.965 30.4334 61.9423 30.4029C61.9197 30.3725 60.2256 30.0273 58.1776 29.636C54.1726 28.8708 50.4888 28.0487 46.4545 27.02C44.0743 26.4131 43.8005 26.379 41.9214 26.457C40.4015 26.5202 39.6823 26.6338 38.9251 26.9304C37.5369 27.4741 36.031 28.572 35.0699 29.7408L34.2551 30.7319L33.4218 29.7155C32.5155 28.6099 30.7422 27.3467 29.3887 26.8421C28.5949 26.5462 24.7449 26.3163 23.989 26.5195ZM28.0544 29.5419C28.8361 29.7251 29.5921 30.0499 30.2698 30.4737C31.3239 31.133 32.5606 32.3144 32.9935 33.6337C33.1539 34.1227 35.3148 34.2709 35.5939 33.6337C35.997 32.4316 36.8826 31.3596 38.168 30.5377C39.6872 29.5661 40.4423 29.3595 42.388 29.3828C43.749 29.3991 44.568 29.5367 46.8545 30.1334C50.3967 31.0577 52.8871 31.6159 56.5873 32.3149C58.2005 32.6195 59.6635 32.9291 59.8385 33.003C60.0864 33.1074 60.236 33.4404 60.519 34.5177C60.8316 35.708 60.8519 35.8983 60.6659 35.8983C60.5474 35.8983 56.048 35.4559 50.6675 34.9153C40.8936 33.9331 40.8841 33.9326 40.3153 34.2709C39.8151 34.5682 39.6887 34.7714 39.2753 35.9424C38.355 38.5485 36.9744 39.5049 34.1255 39.5097C31.3757 39.5144 29.8392 38.503 29.053 36.1703C28.661 35.0076 28.268 34.4177 27.6886 34.1227C27.4149 33.9833 24.8477 34.1847 17.5577 34.9173C12.1872 35.4568 7.74968 35.8983 7.69635 35.8983C7.64288 35.8983 7.70968 35.5525 7.84448 35.1296C7.97927 34.7069 8.13273 34.0973 8.18539 33.7749C8.24459 33.413 8.39111 33.1338 8.56884 33.0447C8.72696 32.9653 9.84637 32.7207 11.0563 32.5012C13.9844 31.9698 18.2907 31.0193 21.3224 30.2352C25.3552 29.1921 26.1937 29.1058 28.0544 29.5419Z" fill="#E2E7E9"/>
<path fill-rule="evenodd" clip-rule="evenodd" d="M20.8098 27.3486C21.8384 27.0897 22.8894 26.8153 23.989 26.5195C24.7449 26.3163 28.5949 26.5462 29.3887 26.8421C30.7422 27.3467 32.5155 28.6099 33.4218 29.7155L34.2551 30.7319L35.0699 29.7408C36.031 28.572 37.5369 27.4741 38.9251 26.9304C39.6823 26.6338 40.4015 26.5202 41.9214 26.457C43.8005 26.379 44.0743 26.4131 46.4545 27.02C46.9653 27.1502 47.4702 27.2772 47.9711 27.4011C47.8571 26.7909 47.6716 26.1944 47.4173 25.6243C46.9606 24.6004 46.2924 23.6847 45.4565 22.9375C45.2961 21.7305 44.9393 20.5579 44.4004 19.466C45.9114 16.475 47.0145 13.2948 47.6804 10.0106C48.1606 7.51868 48.4764 4.12224 47.2512 2.09459C46.9704 1.5952 46.5592 1.18142 46.0616 0.897372C45.5641 0.613324 44.9987 0.469664 44.4259 0.481715C40.4631 0.481715 38.0191 7.32884 36.62 13.4724C35.1465 13.1689 33.6266 13.1689 32.1531 13.4724C30.754 7.32884 28.31 0.481715 24.3472 0.481715C23.7748 0.469192 23.2098 0.612131 22.7123 0.895311C22.2148 1.17849 21.8034 1.59131 21.5219 2.0898C20.2951 4.11745 20.6141 7.51389 21.0927 10.0058C21.7581 13.2917 22.8613 16.4735 24.3727 19.466C23.8333 20.5594 23.4765 21.7336 23.3166 22.9423C22.5174 23.6577 21.8708 24.5269 21.4153 25.498C21.138 26.0893 20.935 26.7109 20.8098 27.3486ZM31.2461 25.936C31.4214 25.6736 31.515 25.3652 31.515 25.0497C31.515 24.6266 31.3469 24.2208 31.0477 23.9216C30.7485 23.6224 30.3427 23.4543 29.9196 23.4543C29.6041 23.4543 29.2957 23.5479 29.0333 23.7232C28.771 23.8985 28.5665 24.1477 28.4458 24.4392C28.325 24.7307 28.2934 25.0514 28.355 25.3609C28.4165 25.6704 28.5685 25.9546 28.7916 26.1777C29.0147 26.4008 29.2989 26.5528 29.6084 26.6143C29.9179 26.6759 30.2386 26.6443 30.5301 26.5236C30.8217 26.4028 31.0708 26.1983 31.2461 25.936ZM37.9671 23.7232C38.2295 23.5479 38.5379 23.4543 38.8534 23.4543C39.2766 23.4543 39.6823 23.6224 39.9815 23.9216C40.2807 24.2208 40.4488 24.6266 40.4488 25.0497C40.4488 25.3652 40.3552 25.6736 40.1799 25.936C40.0046 26.1983 39.7555 26.4028 39.4639 26.5236C39.1724 26.6443 38.8517 26.6759 38.5422 26.6143C38.2327 26.5528 37.9485 26.4008 37.7254 26.1777C37.5023 25.9546 37.3503 25.6704 37.2888 25.3609C37.2272 25.0514 37.2588 24.7307 37.3796 24.4392C37.5003 24.1477 37.7048 23.8985 37.9671 23.7232Z" fill="#E2E7E9"/>
<path d="M1.16326 13.7957C1.0566 13.6447 0.999545 13.4642 1.00001 13.2793C1.00047 13.0945 1.05842 12.9143 1.16583 12.7638C1.27727 12.6112 1.43158 12.4955 1.60988 12.4321L2.78686 12.049C3.08187 11.9507 3.34997 11.7851 3.57001 11.5654C3.79004 11.3457 3.95597 11.0779 4.0547 10.783L4.44046 9.59083C4.50428 9.41456 4.62182 9.26276 4.7765 9.15682C4.93118 9.05087 5.11521 8.99613 5.30266 9.00029C5.49011 9.00446 5.67152 9.06732 5.82134 9.18003C5.97116 9.29274 6.08184 9.44961 6.13777 9.62854L6.52181 10.807C6.62003 11.1022 6.78555 11.3704 7.00529 11.5906C7.22503 11.8107 7.49297 11.9767 7.78794 12.0755L8.97778 12.4629C9.15307 12.5253 9.30456 12.6408 9.41117 12.7933C9.51777 12.9457 9.5742 13.1276 9.5726 13.3137C9.571 13.4997 9.51144 13.6806 9.40222 13.8312C9.293 13.9818 9.13955 14.0946 8.96321 14.154L7.76308 14.5457C7.47602 14.644 7.21502 14.8062 6.99972 15.02C6.78441 15.2337 6.62042 15.4936 6.5201 15.7799L6.13691 16.9713C6.07439 17.1465 5.95886 17.2978 5.80637 17.4044C5.65388 17.511 5.47199 17.5674 5.28595 17.5659C5.09992 17.5644 4.91896 17.505 4.76822 17.396C4.61748 17.287 4.50442 17.1337 4.44474 16.9576L4.06327 15.7799C3.96483 15.4833 3.79813 15.2139 3.57658 14.9934C3.35504 14.773 3.08484 14.6076 2.78771 14.5105L1.59531 14.1231C1.42043 14.0614 1.26956 13.9466 1.16326 13.7957Z" fill="#E2E7E9"/>
<path d="M65.0075 26.5994C65.023 26.7023 65.0623 26.8003 65.1222 26.8855C65.2021 26.998 65.315 27.083 65.4454 27.1286L66.0902 27.3393C66.2227 27.3818 66.3426 27.4551 66.4417 27.5542C66.54 27.6524 66.6142 27.7724 66.6592 27.9056L66.8649 28.541C66.9085 28.6739 66.9927 28.7898 67.1058 28.8721C67.2188 28.9545 67.3549 28.9993 67.4948 29C67.6348 29.0007 67.7713 28.9574 67.8853 28.8762C67.9992 28.7951 68.0846 28.6801 68.1295 28.5476L68.3395 27.9039C68.3847 27.7743 68.4593 27.6569 68.5574 27.5608C68.6556 27.4648 68.7746 27.3927 68.9051 27.3501L69.5399 27.1445C69.673 27.1011 69.789 27.0171 69.8716 26.9042C69.9541 26.7913 69.9991 26.6553 70 26.5154C70.0009 26.3756 69.9578 26.239 69.8767 26.125C69.7956 26.011 69.6807 25.9254 69.5483 25.8803L68.9043 25.6705C68.7729 25.626 68.6535 25.5518 68.5555 25.4536C68.4575 25.3553 68.3836 25.2358 68.3395 25.1042L68.1312 24.468C68.0894 24.334 68.0064 24.2166 67.894 24.1326C67.7815 24.0486 67.6454 24.0022 67.505 24.0001C67.3646 23.998 67.2272 24.0402 67.1122 24.1208C66.9973 24.2014 66.9108 24.3162 66.8649 24.4488L66.655 25.0917C66.6117 25.2233 66.5384 25.3432 66.4384 25.4415C66.3397 25.5392 66.2201 25.6133 66.0885 25.658L65.4537 25.8645C65.3552 25.8983 65.2658 25.9545 65.1928 26.0287C65.1197 26.103 65.065 26.1932 65.0328 26.2922C65.0006 26.3912 64.992 26.4964 65.0075 26.5994Z" fill="#E2E7E9"/>
</svg>
