<svg width="158" height="42" viewBox="0 0 158 42" fill="none" xmlns="http://www.w3.org/2000/svg">
<path d="M12.3677 14.925C12.4572 14.9071 12.5735 14.8981 12.7167 14.8981C13.2535 14.8981 13.6741 15.0592 13.9783 15.3813C14.2825 15.6856 14.4346 16.1061 14.4346 16.643C14.4346 17.5735 13.9515 18.1373 12.9851 18.3341C12.1798 18.4952 10.6766 18.5757 8.47539 18.5757H7.6164C6.63214 18.5757 5.69261 18.5489 4.79783 18.4952C3.92094 18.4415 2.83825 18.3341 1.54977 18.173C0.762357 18.0657 0.368652 17.5288 0.368652 16.5624C0.368652 16.0971 0.458131 15.7124 0.637087 15.4082C0.816044 15.086 1.09343 14.9071 1.46924 14.8713H1.73767C1.95242 13.4217 2.0419 12.0259 2.00611 10.6837H1.8182C1.38871 10.6837 1.06658 10.5405 0.851836 10.2542C0.654983 9.94999 0.556557 9.5026 0.556557 8.91204C0.556557 8.41096 0.654983 7.99936 0.851836 7.67724C1.06658 7.35512 1.37976 7.19406 1.79136 7.19406H2.00611C2.024 6.53192 2.03295 5.27027 2.03295 3.40912C1.4245 3.15859 1.12027 2.64856 1.12027 1.87904C1.12027 1.30638 1.27238 0.894783 1.57661 0.644244C1.88084 0.375809 2.35507 0.2058 2.99932 0.134217C3.8762 0.0447391 5.46892 0 7.77746 0C10.0144 0 11.7235 0.0715828 12.9046 0.214748C13.4414 0.268435 13.853 0.429496 14.1394 0.697932C14.4436 0.948471 14.5957 1.34218 14.5957 1.87904C14.5957 2.41592 14.4615 2.85436 14.1931 3.19438C13.9246 3.5165 13.5578 3.65966 13.0925 3.62387C11.4461 3.48071 9.99652 3.40912 8.74382 3.40912C8.17116 3.40912 7.43744 3.42702 6.54266 3.46281L5.84473 3.48965L5.92526 7.24774H6.54266C7.43744 7.24774 8.52908 7.26564 9.81756 7.30143L11.5355 7.35512C12.2335 7.35512 12.5824 7.91883 12.5824 9.04626C12.5824 9.58313 12.4751 10.0037 12.2603 10.3079C12.0635 10.6121 11.7771 10.7642 11.4013 10.7642C10.8645 10.7642 10.4081 10.7553 10.0323 10.7374L6.54266 10.7106H5.9521C5.91631 12.3212 5.80894 13.7707 5.62998 15.0592C6.31001 15.1308 7.16006 15.1666 8.18011 15.1666C9.66545 15.1666 11.0613 15.086 12.3677 14.925Z" fill="#E2E7E9"/>
<path d="M39.0197 18.8441C37.6954 18.8441 36.5054 18.5668 35.4495 18.012C34.4116 17.4572 33.5973 16.6788 33.0068 15.6766C32.4341 14.6744 32.1478 13.5202 32.1478 12.2138C32.1478 10.8716 32.452 9.65471 33.0605 8.56308C33.6689 7.45354 34.51 6.5856 35.5838 5.95926C36.6754 5.31501 37.9012 4.99289 39.2613 4.99289C40.7109 4.99289 41.9994 5.34186 43.1268 6.03979C44.2721 6.73772 45.0595 7.64145 45.489 8.75098C45.6322 9.091 45.7038 9.38628 45.7038 9.63682C45.7038 10.2274 45.2922 10.6211 44.469 10.8179C44.2363 10.8716 44.0216 10.8985 43.8247 10.8985C43.4668 10.8985 43.1715 10.809 42.9389 10.63C42.7241 10.4332 42.4825 10.12 42.2141 9.6905C41.8741 9.17153 41.4893 8.75993 41.0598 8.4557C40.6303 8.13358 40.1024 7.97252 39.4761 7.97252C38.4739 7.97252 37.6507 8.38412 37.0065 9.20732C36.3622 10.0126 36.0401 11.0327 36.0401 12.2675C36.0401 13.3949 36.3264 14.2807 36.8991 14.925C37.4896 15.5513 38.3397 15.8645 39.4492 15.8645C40.5051 15.8645 41.2835 15.5961 41.7846 15.0592C42.3036 14.5044 42.5631 13.8602 42.5631 13.1265C42.5631 12.8401 42.7062 12.5807 42.9926 12.348C43.2968 12.0975 43.6994 11.9722 44.2005 11.9722C44.809 11.9722 45.2653 12.0885 45.5695 12.3212C45.8917 12.5538 46.0527 12.9654 46.0527 13.556C46.0527 14.4507 45.8201 15.3008 45.3548 16.1061C44.8895 16.9114 44.1289 17.5735 43.0731 18.0925C42.0351 18.5936 40.684 18.8441 39.0197 18.8441Z" fill="#E2E7E9"/>
<path d="M61.4517 15.8377C61.7917 15.8914 62.0512 16.0166 62.2301 16.2135C62.427 16.4103 62.5254 16.7593 62.5254 17.2604C62.5254 17.6899 62.4091 18.0567 62.1764 18.361C61.9617 18.6652 61.6664 18.8173 61.2906 18.8173C60.5211 18.8173 59.9305 18.7278 59.5189 18.5489C59.1073 18.352 58.7315 18.003 58.3915 17.502C57.9978 18.0925 57.4609 18.5131 56.7809 18.7636C56.1009 18.9962 55.3045 19.1126 54.3918 19.1126C52.3696 19.1126 50.8306 18.531 49.7747 17.3677C48.7189 16.2045 48.191 14.585 48.191 12.5091C48.191 11.149 48.4684 9.94104 49.0231 8.8852C49.5779 7.82935 50.3474 7.00615 51.3317 6.4156C52.3338 5.82504 53.4791 5.52976 54.7676 5.52976C55.4119 5.52976 56.0114 5.65503 56.5662 5.90557C57.1209 6.15611 57.5415 6.48718 57.8278 6.89878L57.8815 6.54981C57.9173 6.29927 58.0604 6.09347 58.311 5.93241C58.5615 5.75346 58.9552 5.66398 59.4921 5.66398C60.0648 5.66398 60.4853 5.7803 60.7537 6.01294C61.0222 6.24559 61.1564 6.54087 61.1564 6.89878C61.1564 7.02405 61.1474 7.12247 61.1295 7.19406C61.0222 7.80251 60.9148 8.82256 60.8074 10.2542C60.7537 10.9164 60.7269 11.7664 60.7269 12.8043V14.1465C60.7269 14.6655 60.7716 15.0682 60.8611 15.3545C60.9506 15.6229 61.1474 15.784 61.4517 15.8377ZM56.9688 13.9855C56.9867 13.2517 56.9956 12.1154 56.9956 10.5763C56.9956 9.96789 56.7898 9.47575 56.3782 9.09995C55.9845 8.70624 55.4745 8.50939 54.8482 8.50939C54.0429 8.50939 53.3807 8.8852 52.8617 9.63682C52.3428 10.3705 52.0833 11.319 52.0833 12.4822C52.0833 13.5918 52.3159 14.4776 52.7812 15.1397C53.2465 15.8019 53.8728 16.1329 54.6603 16.1329C55.394 16.1329 55.9577 15.954 56.3514 15.5961C56.7451 15.2203 56.9509 14.6834 56.9688 13.9855Z" fill="#E2E7E9"/>
<path d="M72.706 5.10026C74.2808 5.10026 75.4977 5.65503 76.3567 6.76456C77.2336 7.8562 77.6721 9.47575 77.6721 11.6232L77.6452 17.6899C77.6452 18.0657 77.4573 18.352 77.0815 18.5489C76.7236 18.7457 76.2762 18.8441 75.7393 18.8441C75.2204 18.8441 74.7551 18.7547 74.3435 18.5757C73.9498 18.3967 73.7529 18.1462 73.7529 17.8241L73.7798 11.5964C73.7798 10.29 73.6366 9.37733 73.3503 8.85835C73.0639 8.33938 72.6165 8.07989 72.0081 8.07989C71.4891 8.07989 71.0775 8.31254 70.7733 8.77782C70.469 9.24311 70.2096 10.1468 69.9948 11.489C69.8696 12.2406 69.8069 13.0728 69.8069 13.9855L69.8338 17.4483C69.8338 17.9136 69.6548 18.2715 69.2969 18.522C68.9569 18.7547 68.4916 18.871 67.901 18.871C67.2926 18.871 66.8094 18.7457 66.4515 18.4952C66.1115 18.2446 65.9415 17.8957 65.9415 17.4483C65.9415 13.726 65.8878 10.8269 65.7804 8.75098C65.7625 8.53623 65.7088 8.33938 65.6193 8.16042C65.5477 7.96357 65.4583 7.78461 65.3509 7.62355C65.2435 7.46249 65.163 7.33722 65.1093 7.24774C65.0019 7.05089 64.9482 6.85404 64.9482 6.65719C64.9482 6.28138 65.163 5.93241 65.5925 5.61029C66.0399 5.27027 66.4694 5.10026 66.881 5.10026C67.0778 5.10026 67.2657 5.1629 67.4447 5.28817C67.6415 5.41344 67.8563 5.61924 68.0889 5.90557C68.2858 6.15611 68.4289 6.37981 68.5184 6.57666C68.6079 6.77351 68.6526 6.99721 68.6526 7.24774V7.48934C68.9748 6.8093 69.458 6.24559 70.1022 5.7982C70.7643 5.33291 71.6323 5.10026 72.706 5.10026Z" fill="#E2E7E9"/>
<path d="M88.4422 13.4754C89.0327 13.4754 89.4622 13.5918 89.7307 13.8244C89.9991 14.057 90.1333 14.4329 90.1333 14.9518C90.1333 16.1329 89.7575 17.0814 89.0059 17.7972C88.2543 18.5131 87.3058 18.871 86.1605 18.871C84.6036 18.871 83.4672 18.2446 82.7514 16.9919C82.0355 15.7213 81.6776 13.717 81.6776 10.979C81.6776 10.1558 81.6866 9.55628 81.7045 9.18048C81.5792 9.16258 81.3734 9.15363 81.0871 9.15363C80.067 9.13574 79.557 8.64361 79.557 7.67724C79.557 7.17616 79.6822 6.80035 79.9328 6.54981C80.2012 6.29927 80.6665 6.18295 81.3287 6.20085L81.9192 6.22769C82.0445 5.11816 82.2503 3.75809 82.5366 2.14748C82.6082 1.71798 82.805 1.39586 83.1272 1.18111C83.4672 0.948471 83.8967 0.832149 84.4156 0.832149C85.0241 0.832149 85.4983 0.975314 85.8384 1.26164C86.1784 1.54798 86.3484 1.89694 86.3484 2.30854L86.3215 2.52329L86.1873 3.38228C85.9726 4.84972 85.8294 5.85188 85.7578 6.38875C86.3663 6.42454 86.8316 6.44244 87.1537 6.44244C88.0664 6.46034 88.5227 6.93457 88.5227 7.86515C88.5227 8.33043 88.3974 8.6794 88.1469 8.91204C87.8964 9.14469 87.4758 9.26101 86.8852 9.26101H85.5431C85.5252 9.61892 85.5162 10.1916 85.5162 10.979C85.5162 12.3033 85.5431 13.3233 85.5968 14.0391C85.6683 14.7371 85.7668 15.2113 85.892 15.4619C86.0173 15.7124 86.1784 15.8377 86.3752 15.8377C86.6258 15.8377 86.7868 15.7571 86.8584 15.5961C86.93 15.435 86.9658 15.1487 86.9658 14.7371C86.9658 13.896 87.4579 13.4754 88.4422 13.4754Z" fill="#E2E7E9"/>
<path d="M99.1618 18.8978C96.889 18.8978 95.0815 18.3073 93.7394 17.1262C92.4151 15.9271 91.7529 14.2539 91.7529 12.1064C91.7529 10.7106 92.0482 9.46681 92.6388 8.37517C93.2293 7.28354 94.0615 6.43349 95.1352 5.82504C96.2269 5.21659 97.5064 4.91236 98.9738 4.91236C100.459 4.91236 101.766 5.22553 102.893 5.85188C104.02 6.47823 104.888 7.35512 105.497 8.48255C106.123 9.59208 106.436 10.8627 106.436 12.2943C106.436 14.3881 105.783 16.0166 104.477 17.1798C103.17 18.3252 101.399 18.8978 99.1618 18.8978ZM99.1081 15.9182C100.2 15.9182 101.041 15.614 101.631 15.0055C102.24 14.3792 102.544 13.4575 102.544 12.2406C102.544 11.0416 102.249 10.0216 101.658 9.18048C101.086 8.32148 100.235 7.89199 99.1081 7.89199C98.0522 7.89199 97.2111 8.27675 96.5848 9.04626C95.9584 9.81577 95.6452 10.8448 95.6452 12.1333C95.6452 13.386 95.9495 14.3344 96.5579 14.9787C97.1664 15.605 98.0164 15.9182 99.1081 15.9182Z" fill="#E2E7E9"/>
<path d="M113.991 19.0589C112.756 19.0589 111.655 18.7726 110.689 18.1999C109.723 17.6093 109.034 16.8309 108.622 15.8645C108.515 15.5961 108.461 15.3724 108.461 15.1934C108.461 14.8176 108.658 14.4597 109.051 14.1197C109.445 13.7797 109.875 13.6097 110.34 13.6097C110.608 13.6097 110.823 13.6723 110.984 13.7976C111.145 13.9049 111.271 14.0123 111.36 14.1197C111.449 14.2092 111.503 14.2718 111.521 14.3076C112.04 14.916 112.47 15.3455 112.81 15.5961C113.15 15.8466 113.561 15.9719 114.044 15.9719C114.492 15.9719 114.877 15.8824 115.199 15.7034C115.521 15.5066 115.682 15.2382 115.682 14.8981C115.682 14.5223 115.494 14.2271 115.118 14.0123C114.742 13.7976 114.134 13.556 113.293 13.2875C112.362 12.9654 111.602 12.6612 111.011 12.3749C110.438 12.0885 109.928 11.668 109.481 11.1132C109.051 10.5405 108.837 9.81577 108.837 8.93888C108.837 8.062 109.087 7.31038 109.588 6.68403C110.089 6.03979 110.752 5.54766 111.575 5.20764C112.416 4.86762 113.32 4.69761 114.286 4.69761C115.324 4.69761 116.219 4.89446 116.97 5.28817C117.74 5.66398 118.321 6.174 118.715 6.81825C119.109 7.4446 119.306 8.11568 119.306 8.83151C119.306 9.31469 119.171 9.68155 118.903 9.93209C118.635 10.1826 118.187 10.3079 117.561 10.3079C117.006 10.3079 116.621 10.2184 116.407 10.0395C116.21 9.86051 116.084 9.60997 116.031 9.28785C115.977 8.84046 115.834 8.48254 115.601 8.21411C115.387 7.94567 114.948 7.81146 114.286 7.81146C113.785 7.81146 113.391 7.90094 113.105 8.07989C112.836 8.25885 112.702 8.50939 112.702 8.83151C112.702 9.22522 112.89 9.52944 113.266 9.74419C113.66 9.95894 114.286 10.1916 115.145 10.4421C116.058 10.7285 116.809 11.0148 117.4 11.3011C117.99 11.5695 118.5 11.9811 118.93 12.5359C119.359 13.0728 119.574 13.7886 119.574 14.6834C119.574 15.7034 119.288 16.5445 118.715 17.2067C118.142 17.8688 117.427 18.3431 116.568 18.6294C115.709 18.9157 114.85 19.0589 113.991 19.0589Z" fill="#E2E7E9"/>
<path d="M42.9899 41.0258C42.4172 41.0258 41.943 40.8826 41.5672 40.5963C41.1914 40.31 41.0124 39.9252 41.0303 39.442L41.245 29.5368C41.2629 29.0536 41.4508 28.6778 41.8088 28.4094C42.1667 28.123 42.632 27.9799 43.2046 27.9799C43.7952 27.9799 44.2784 28.123 44.6542 28.4094C45.03 28.6957 45.2089 29.0894 45.191 29.5905L44.9763 39.4689C44.9584 39.9521 44.7615 40.3368 44.3857 40.6232C44.0278 40.8916 43.5625 41.0258 42.9899 41.0258Z" fill="#E2E7E9"/>
<path d="M57.3214 35.845C57.9119 35.845 58.3414 35.9613 58.6099 36.194C58.8783 36.4266 59.0125 36.8024 59.0125 37.3214C59.0125 38.5025 58.6367 39.451 57.8851 40.1668C57.1335 40.8826 56.185 41.2406 55.0397 41.2406C53.4827 41.2406 52.3464 40.6142 51.6305 39.3615C50.9147 38.0909 50.5568 36.0866 50.5568 33.3486C50.5568 32.5254 50.5658 31.9259 50.5836 31.5501C50.4584 31.5322 50.2526 31.5232 49.9662 31.5232C48.9462 31.5053 48.4362 31.0132 48.4362 30.0468C48.4362 29.5457 48.5614 29.1699 48.812 28.9194C49.0804 28.6689 49.5457 28.5525 50.2078 28.5704L50.7984 28.5973C50.9237 27.4877 51.1295 26.1277 51.4158 24.5171C51.4874 24.0876 51.6842 23.7654 52.0064 23.5507C52.3464 23.3181 52.7759 23.2017 53.2948 23.2017C53.9033 23.2017 54.3775 23.3449 54.7175 23.6312C55.0576 23.9176 55.2276 24.2665 55.2276 24.6781L55.2007 24.8929L55.0665 25.7519C54.8518 27.2193 54.7086 28.2215 54.637 28.7583C55.2455 28.7941 55.7108 28.812 56.0329 28.812C56.9456 28.8299 57.4019 29.3041 57.4019 30.2347C57.4019 30.7 57.2766 31.049 57.0261 31.2816C56.7755 31.5143 56.355 31.6306 55.7644 31.6306H54.4223C54.4044 31.9885 54.3954 32.5612 54.3954 33.3486C54.3954 34.6729 54.4223 35.6929 54.476 36.4087C54.5475 37.1067 54.646 37.5809 54.7712 37.8314C54.8965 38.082 55.0576 38.2072 55.2544 38.2072C55.505 38.2072 55.666 38.1267 55.7376 37.9657C55.8092 37.8046 55.845 37.5183 55.845 37.1067C55.845 36.2656 56.3371 35.845 57.3214 35.845Z" fill="#E2E7E9"/>
<path d="M68.3631 41.4553C66.7346 41.4553 65.3566 41.1511 64.2292 40.5426C63.1196 39.9342 62.2875 39.0931 61.7327 38.0193C61.178 36.9456 60.9006 35.7287 60.9006 34.3686C60.9006 33.0086 61.2137 31.8006 61.8401 30.7448C62.4843 29.671 63.3523 28.8389 64.4439 28.2483C65.5534 27.6577 66.7882 27.3625 68.1483 27.3625C69.3652 27.3625 70.4747 27.6041 71.4769 28.0872C72.497 28.5704 73.2933 29.2684 73.866 30.181C74.4565 31.0758 74.7518 32.1317 74.7518 33.3486C74.7518 34.1181 74.6087 34.6728 74.3223 35.0129C74.0539 35.335 73.5886 35.4961 72.9265 35.4961H64.256C64.256 35.9255 64.4081 36.364 64.7123 36.8114C65.0166 37.2409 65.4729 37.6077 66.0814 37.912C66.6898 38.2162 67.4146 38.3683 68.2557 38.3683C69.0073 38.3683 69.5979 38.2609 70.0274 38.0462C70.4569 37.8135 70.9042 37.4735 71.3695 37.0261C71.7095 36.7219 72.0585 36.5698 72.4164 36.5698C72.828 36.5698 73.2128 36.7309 73.5707 37.053C73.9286 37.3572 74.1076 37.7062 74.1076 38.0999C74.1076 38.422 74.0002 38.7352 73.7855 39.0394C73.4096 39.6299 72.7743 40.1847 71.8796 40.7037C70.9848 41.2048 69.8126 41.4553 68.3631 41.4553ZM71.2085 33.0801C71.3695 33.0801 71.468 33.0533 71.5038 32.9996C71.5574 32.9459 71.5843 32.8475 71.5843 32.7043C71.5843 32.0064 71.2443 31.4248 70.5642 30.9595C69.9021 30.4942 69.0789 30.2616 68.0946 30.2616C67.3072 30.2616 66.6182 30.4137 66.0277 30.7179C65.455 31.0221 65.0166 31.3979 64.7123 31.8453C64.4081 32.2748 64.256 32.6864 64.256 33.0801H71.2085Z" fill="#E2E7E9"/>
<path d="M84.8638 27.2551C85.5797 27.2551 86.2418 27.4251 86.8503 27.7651C87.4587 28.0872 87.9419 28.5525 88.2998 29.161C88.6577 29.7694 88.8367 30.4763 88.8367 31.2816C88.8367 32.4448 88.4519 33.3486 87.6824 33.9928C86.9308 34.6192 85.9555 34.9323 84.7565 34.9323C84.1301 34.9323 83.6917 34.8429 83.4411 34.6639C83.1906 34.467 83.0653 34.1449 83.0653 33.6975C83.0653 33.268 83.1548 32.9728 83.3338 32.8117C83.5127 32.6327 83.7633 32.5254 84.0854 32.4896C85.1412 32.3822 85.6691 31.9438 85.6691 31.1742C85.6691 30.8521 85.5886 30.6105 85.4276 30.4495C85.2844 30.2705 85.0786 30.181 84.8102 30.181C84.327 30.181 83.8796 30.4584 83.468 31.0132C83.0564 31.5501 82.7164 32.1854 82.4479 32.9191C82.1795 33.6349 82.0095 34.2434 81.9379 34.7444C81.8126 35.5318 81.75 36.9277 81.75 38.932C81.75 39.8984 81.6068 40.5605 81.3205 40.9184C81.0521 41.2585 80.5689 41.4285 79.871 41.4285C79.2267 41.4285 78.7346 41.3032 78.3946 41.0527C78.0724 40.8021 77.9024 40.4174 77.8845 39.8984V35.5497C77.8845 34.4044 77.8577 33.4381 77.804 32.6506C77.7503 31.8453 77.6608 30.8163 77.5356 29.5636L77.4282 28.4631C77.3924 28.0157 77.5356 27.6488 77.8577 27.3625C78.1977 27.0761 78.663 26.933 79.2535 26.933C80.2557 26.933 80.7926 27.3804 80.8642 28.2752C80.9 28.7046 80.9357 29.3131 80.9715 30.1005C81.3294 29.2594 81.8305 28.5794 82.4748 28.0604C83.1369 27.5235 83.9333 27.2551 84.8638 27.2551Z" fill="#E2E7E9"/>
<path d="M104.15 38.2072C104.491 38.2609 104.75 38.3862 104.929 38.5831C105.126 38.7799 105.224 39.1289 105.224 39.6299C105.224 40.0594 105.108 40.4263 104.875 40.7305C104.661 41.0348 104.365 41.1869 103.989 41.1869C103.22 41.1869 102.629 41.0974 102.218 40.9184C101.806 40.7216 101.43 40.3726 101.09 39.8715C100.697 40.4621 100.16 40.8826 99.4797 41.1332C98.7997 41.3658 98.0033 41.4822 97.0906 41.4822C95.0684 41.4822 93.5294 40.9005 92.4736 39.7373C91.4177 38.5741 90.8898 36.9545 90.8898 34.8787C90.8898 33.5186 91.1672 32.3106 91.7219 31.2548C92.2767 30.1989 93.0462 29.3757 94.0305 28.7852C95.0326 28.1946 96.178 27.8993 97.4665 27.8993C98.1107 27.8993 98.7102 28.0246 99.265 28.2752C99.8197 28.5257 100.24 28.8568 100.527 29.2684L100.58 28.9194C100.616 28.6689 100.759 28.4631 101.01 28.302C101.26 28.123 101.654 28.0336 102.191 28.0336C102.764 28.0336 103.184 28.1499 103.453 28.3825C103.721 28.6152 103.855 28.9104 103.855 29.2684C103.855 29.3936 103.846 29.4921 103.828 29.5636C103.721 30.1721 103.614 31.1921 103.506 32.6238C103.453 33.2859 103.426 34.136 103.426 35.1739V36.5161C103.426 37.0351 103.47 37.4377 103.56 37.7241C103.649 37.9925 103.846 38.1536 104.15 38.2072ZM99.6676 36.355C99.6855 35.6213 99.6945 34.4849 99.6945 32.9459C99.6945 32.3375 99.4887 31.8453 99.0771 31.4695C98.6833 31.0758 98.1733 30.879 97.547 30.879C96.7417 30.879 96.0795 31.2548 95.5606 32.0064C95.0416 32.7401 94.7821 33.6886 94.7821 34.8518C94.7821 35.9613 95.0147 36.8472 95.48 37.5093C95.9453 38.1715 96.5717 38.5025 97.3591 38.5025C98.0928 38.5025 98.6565 38.3236 99.0502 37.9657C99.4439 37.5898 99.6497 37.053 99.6676 36.355ZM96.3659 26.4229C95.9901 26.4229 95.6769 26.2977 95.4263 26.0471C95.1758 25.7787 95.0505 25.4566 95.0505 25.0808C95.0505 24.866 95.0953 24.6423 95.1848 24.4097C95.2742 24.177 95.3995 23.9891 95.5606 23.846L98.057 21.5643C98.397 21.2422 98.6655 21.0185 98.8623 20.8932C99.077 20.7679 99.3097 20.7053 99.5602 20.7053C99.9539 20.7053 100.285 20.8395 100.553 21.1079C100.822 21.3764 100.956 21.7164 100.956 22.128C100.956 22.3964 100.893 22.647 100.768 22.8796C100.661 23.1122 100.518 23.3091 100.339 23.4702L97.6544 25.7787C97.4038 26.0113 97.1801 26.1814 96.9833 26.2887C96.7864 26.3782 96.5806 26.4229 96.3659 26.4229Z" fill="#E2E7E9"/>
<path d="M115.351 27.2551C116.067 27.2551 116.729 27.4251 117.338 27.7651C117.946 28.0872 118.429 28.5525 118.787 29.161C119.145 29.7694 119.324 30.4763 119.324 31.2816C119.324 32.4448 118.939 33.3486 118.17 33.9928C117.418 34.6192 116.443 34.9323 115.244 34.9323C114.617 34.9323 114.179 34.8429 113.928 34.6639C113.678 34.467 113.553 34.1449 113.553 33.6975C113.553 33.268 113.642 32.9728 113.821 32.8117C114 32.6327 114.251 32.5254 114.573 32.4896C115.629 32.3822 116.156 31.9438 116.156 31.1742C116.156 30.8521 116.076 30.6105 115.915 30.4495C115.772 30.2705 115.566 30.181 115.297 30.181C114.814 30.181 114.367 30.4584 113.955 31.0132C113.544 31.5501 113.204 32.1854 112.935 32.9191C112.667 33.6349 112.497 34.2434 112.425 34.7444C112.3 35.5318 112.237 36.9277 112.237 38.932C112.237 39.8984 112.094 40.5605 111.808 40.9184C111.539 41.2585 111.056 41.4285 110.358 41.4285C109.714 41.4285 109.222 41.3032 108.882 41.0527C108.56 40.8021 108.39 40.4174 108.372 39.8984V35.5497C108.372 34.4044 108.345 33.4381 108.291 32.6506C108.238 31.8453 108.148 30.8163 108.023 29.5636L107.915 28.4631C107.88 28.0157 108.023 27.6488 108.345 27.3625C108.685 27.0761 109.15 26.933 109.741 26.933C110.743 26.933 111.28 27.3804 111.351 28.2752C111.387 28.7046 111.423 29.3131 111.459 30.1005C111.817 29.2594 112.318 28.5794 112.962 28.0604C113.624 27.5235 114.421 27.2551 115.351 27.2551Z" fill="#E2E7E9"/>
<path d="M124.464 41.0258C123.891 41.0258 123.417 40.8826 123.041 40.5963C122.666 40.31 122.487 39.9252 122.505 39.442L122.719 29.5368C122.737 29.0536 122.925 28.6778 123.283 28.4094C123.641 28.123 124.106 27.9799 124.679 27.9799C125.269 27.9799 125.753 28.123 126.128 28.4094C126.504 28.6957 126.683 29.0894 126.665 29.5905L126.451 39.4689C126.433 39.9521 126.236 40.3368 125.86 40.6232C125.502 40.8916 125.037 41.0258 124.464 41.0258Z" fill="#E2E7E9"/>
<path d="M137.588 41.2674C135.315 41.2674 133.507 40.6768 132.165 39.4957C130.841 38.2967 130.179 36.6235 130.179 34.476C130.179 33.0801 130.474 31.8364 131.065 30.7448C131.655 29.6531 132.487 28.8031 133.561 28.1946C134.653 27.5862 135.932 27.2819 137.4 27.2819C138.885 27.2819 140.191 27.5951 141.319 28.2215C142.446 28.8478 143.314 29.7247 143.923 30.8521C144.549 31.9617 144.862 33.2323 144.862 34.6639C144.862 36.7577 144.209 38.3862 142.903 39.5494C141.596 40.6947 139.825 41.2674 137.588 41.2674ZM137.534 38.2878C138.626 38.2878 139.467 37.9835 140.057 37.3751C140.666 36.7487 140.97 35.8271 140.97 34.6102C140.97 33.4112 140.675 32.3912 140.084 31.5501C139.511 30.6911 138.661 30.2616 137.534 30.2616C136.478 30.2616 135.637 30.6463 135.011 31.4158C134.384 32.1854 134.071 33.2144 134.071 34.5028C134.071 35.7555 134.375 36.704 134.984 37.3483C135.592 37.9746 136.442 38.2878 137.534 38.2878Z" fill="#E2E7E9"/>
<path d="M152.417 41.4285C151.182 41.4285 150.081 41.1421 149.115 40.5695C148.148 39.9789 147.459 39.2005 147.048 38.2341C146.94 37.9657 146.887 37.742 146.887 37.563C146.887 37.1872 147.084 36.8293 147.477 36.4893C147.871 36.1492 148.301 35.9792 148.766 35.9792C149.034 35.9792 149.249 36.0419 149.41 36.1671C149.571 36.2745 149.696 36.3819 149.786 36.4893C149.875 36.5787 149.929 36.6414 149.947 36.6772C150.466 37.2856 150.895 37.7151 151.235 37.9657C151.575 38.2162 151.987 38.3415 152.47 38.3415C152.918 38.3415 153.302 38.252 153.625 38.073C153.947 37.8762 154.108 37.6077 154.108 37.2677C154.108 36.8919 153.92 36.5966 153.544 36.3819C153.168 36.1671 152.56 35.9255 151.719 35.6571C150.788 35.335 150.027 35.0308 149.437 34.7444C148.864 34.4581 148.354 34.0376 147.907 33.4828C147.477 32.9101 147.263 32.1854 147.263 31.3085C147.263 30.4316 147.513 29.68 148.014 29.0536C148.515 28.4094 149.177 27.9172 150.001 27.5772C150.842 27.2372 151.745 27.0672 152.712 27.0672C153.75 27.0672 154.645 27.264 155.396 27.6577C156.166 28.0336 156.747 28.5436 157.141 29.1878C157.535 29.8142 157.732 30.4853 157.732 31.2011C157.732 31.6843 157.597 32.0511 157.329 32.3017C157.061 32.5522 156.613 32.6775 155.987 32.6775C155.432 32.6775 155.047 32.588 154.832 32.409C154.636 32.2301 154.51 31.9796 154.457 31.6574C154.403 31.21 154.26 30.8521 154.027 30.5837C153.812 30.3153 153.374 30.181 152.712 30.181C152.211 30.181 151.817 30.2705 151.531 30.4495C151.262 30.6284 151.128 30.879 151.128 31.2011C151.128 31.5948 151.316 31.899 151.692 32.1138C152.085 32.3285 152.712 32.5612 153.571 32.8117C154.484 33.098 155.235 33.3844 155.826 33.6707C156.416 33.9391 156.926 34.3507 157.356 34.9055C157.785 35.4424 158 36.1582 158 37.053C158 38.073 157.714 38.9141 157.141 39.5763C156.568 40.2384 155.853 40.7126 154.994 40.999C154.135 41.2853 153.276 41.4285 152.417 41.4285Z" fill="#E2E7E9"/>
<path d="M24.76 5.10026C26.3348 5.10026 27.5517 5.65503 28.4107 6.76456C29.2876 7.8562 29.726 9.47575 29.726 11.6232C29.726 11.6232 29.497 17.7124 29.4357 18.8173C29.3743 19.9221 28.7339 30.0021 28.7339 30.0021C28.6265 31.9594 28.6265 33.1786 28.6265 34.8787C28.6265 35.7555 28.6623 36.3998 28.7339 36.8114C28.8234 37.223 28.9844 37.5093 29.2171 37.6704C29.4676 37.8314 29.8524 37.912 30.3713 37.912C31.4809 37.912 33.3957 37.6614 36.1158 37.1603C36.2053 37.1425 36.3306 37.1335 36.4916 37.1335C36.9569 37.1335 37.3238 37.3125 37.5922 37.6704C37.8786 38.0104 38.0217 38.413 38.0217 38.8783C38.0217 39.8268 37.3327 40.4263 35.9548 40.6768C34.72 40.9095 33.7805 41.0705 33.1362 41.16C32.5099 41.2316 31.7135 41.2674 30.7471 41.2674C28.9934 41.2674 27.7049 41.0795 26.8817 40.7037C26.0764 40.3279 25.5395 39.7015 25.2711 38.8246C25.0026 37.9478 24.8684 36.5966 24.8684 34.7713C24.8684 32.7133 24.9579 30.8253 25.1368 29.1073C25.3337 27.3893 25.5694 21.8394 25.8248 18.2312C26.0802 14.623 25.8337 11.5964 25.8337 11.5964C25.8337 10.29 25.6905 9.37733 25.4042 8.85835C25.1179 8.33938 24.6705 8.07989 24.062 8.07989C23.5431 8.07989 23.1315 8.31254 22.8272 8.77782C22.523 9.24311 22.2635 10.1468 22.0488 11.489C21.9235 12.2406 21.8609 13.0728 21.8609 13.9855L21.8877 17.4483C21.8877 17.9136 21.7087 18.2715 21.3508 18.522C21.0108 18.7547 20.5455 18.871 19.955 18.871C19.3465 18.871 18.8633 18.7457 18.5054 18.4952C18.1654 18.2446 17.9954 17.8957 17.9954 17.4483C17.9954 13.726 17.9417 10.8269 17.8343 8.75098C17.8164 8.53623 17.7627 8.33938 17.6733 8.16042C17.6017 7.96357 17.5122 7.78461 17.4048 7.62355C17.2975 7.46249 17.2169 7.33722 17.1632 7.24774C17.0559 7.05089 17.0022 6.85404 17.0022 6.65719C17.0022 6.28138 17.2169 5.93241 17.6464 5.61029C18.0938 5.27027 18.5233 5.10026 18.9349 5.10026C19.1318 5.10026 19.3197 5.1629 19.4986 5.28817C19.6955 5.41344 19.9102 5.61924 20.1429 5.90557C20.3397 6.15611 20.4829 6.37981 20.5724 6.57666C20.6618 6.77351 20.7066 6.99721 20.7066 7.24774V7.48934C21.0287 6.8093 21.5119 6.24559 22.1561 5.7982C22.8183 5.33291 23.6862 5.10026 24.76 5.10026Z" fill="#E2E7E9"/>
<path d="M40.5 24.1193C40.5186 24.2428 40.5657 24.3604 40.6376 24.4626C40.7335 24.5977 40.8691 24.6996 41.0255 24.7544L41.7993 25.0072C41.9582 25.0582 42.1022 25.1461 42.2211 25.265C42.3391 25.3829 42.4281 25.5268 42.482 25.6867L42.729 26.4492C42.7812 26.6087 42.8823 26.7477 43.0179 26.8466C43.1536 26.9454 43.317 26.9991 43.4848 27C43.6527 27.0009 43.8166 26.9489 43.9533 26.8515C44.09 26.7541 44.1926 26.6161 44.2465 26.4572L44.4984 25.6847C44.5527 25.5292 44.6422 25.3883 44.7599 25.273C44.8777 25.1577 45.0205 25.0712 45.1772 25.0202L45.939 24.7734C46.0986 24.7214 46.2378 24.6205 46.3369 24.485C46.436 24.3495 46.4899 24.1863 46.491 24.0185C46.4921 23.8507 46.4403 23.6868 46.3431 23.55C46.2458 23.4132 46.1079 23.3105 45.949 23.2564L45.1762 23.0046C45.0184 22.9513 44.8752 22.8622 44.7576 22.7443C44.64 22.6264 44.5513 22.4829 44.4984 22.3251L44.2485 21.5616C44.1984 21.4008 44.0987 21.26 43.9638 21.1591C43.8289 21.0583 43.6655 21.0027 43.4971 21.0001C43.3286 20.9976 43.1636 21.0483 43.0257 21.145C42.8878 21.2417 42.7839 21.3794 42.729 21.5386L42.477 22.3101C42.4251 22.468 42.3371 22.6119 42.2171 22.7298C42.0987 22.8471 41.9551 22.9359 41.7973 22.9896L41.0355 23.2374C40.9172 23.278 40.81 23.3454 40.7224 23.4345C40.6347 23.5236 40.569 23.6318 40.5304 23.7507C40.4918 23.8695 40.4814 23.9957 40.5 24.1193Z" fill="#E2E7E9"/>
<path d="M122.009 24.1192C122.028 24.2428 122.075 24.3603 122.147 24.4626C122.243 24.5977 122.378 24.6996 122.534 24.7544L123.308 25.0072C123.467 25.0581 123.611 25.1461 123.73 25.265C123.848 25.3829 123.937 25.5268 123.991 25.6867L124.238 26.4492C124.29 26.6087 124.391 26.7477 124.527 26.8466C124.663 26.9454 124.826 26.9991 124.994 27C125.162 27.0009 125.326 26.9489 125.462 26.8515C125.599 26.7541 125.702 26.6161 125.755 26.4572L126.007 25.6847C126.062 25.5292 126.151 25.3882 126.269 25.273C126.387 25.1577 126.529 25.0712 126.686 25.0202L127.448 24.7733C127.608 24.7214 127.747 24.6205 127.846 24.485C127.945 24.3495 127.999 24.1863 128 24.0185C128.001 23.8507 127.949 23.6867 127.852 23.55C127.755 23.4132 127.617 23.3105 127.458 23.2564L126.685 23.0046C126.527 22.9512 126.384 22.8622 126.267 22.7443C126.149 22.6264 126.06 22.4829 126.007 22.3251L125.757 21.5616C125.707 21.4008 125.608 21.26 125.473 21.1591C125.338 21.0583 125.174 21.0026 125.006 21.0001C124.838 20.9975 124.673 21.0482 124.535 21.1449C124.397 21.2416 124.293 21.3794 124.238 21.5386L123.986 22.3101C123.934 22.468 123.846 22.6119 123.726 22.7298C123.608 22.8471 123.464 22.9359 123.306 22.9896L122.544 23.2374C122.426 23.2779 122.319 23.3454 122.231 23.4345C122.144 23.5236 122.078 23.6318 122.039 23.7506C122.001 23.8695 121.99 23.9957 122.009 24.1192Z" fill="#E2E7E9"/>
</svg>
